<svg xmlns="http://www.w3.org/2000/svg" viewBox="0 7 103.6500015258789 36" data-asc="0.86" width="103.6500015258789" height="36"><defs/><g fill="#2c2a2a"><g transform="translate(0, 0)"><path d="M18.65 43L1.80 43Q0.85 43 0.42 42.58Q0 42.15 0 41.20L0 8.80Q0 7.85 0.42 7.42Q0.85 7 1.80 7L18.65 7Q24.90 7 27.93 9.50Q30.95 12 30.95 17.20L30.95 32.80Q30.95 38 27.93 40.50Q24.90 43 18.65 43M11.35 16.55L11.35 33.55L17.30 33.55Q18.50 33.55 19.08 32.95Q19.65 32.35 19.65 31.10L19.65 18.95Q19.65 17.70 19.08 17.13Q18.50 16.55 17.30 16.55L11.35 16.55ZM64.80 43L49.05 43Q42.80 43 39.78 40.50Q36.75 38 36.75 32.80L36.75 17.20Q36.75 12 39.78 9.50Q42.80 7 49.05 7L61.55 7Q62.50 7 62.93 7.42Q63.35 7.85 63.35 8.80L63.35 14.85Q63.35 15.80 62.93 16.22Q62.50 16.65 61.55 16.65L51.15 16.65Q49.60 16.65 48.85 17.27Q48.10 17.90 48.10 19.15L48.10 31.10Q48.10 32.35 48.68 32.95Q49.25 33.55 50.40 33.55L55.25 33.55L55.25 25.75Q55.25 24.80 55.68 24.38Q56.10 23.95 57.05 23.95L64.80 23.95Q65.75 23.95 66.18 24.38Q66.60 24.80 66.60 25.75L66.60 41.20Q66.60 42.15 66.18 42.58Q65.75 43 64.80 43ZM91.35 43L74.50 43Q73.55 43 73.13 42.58Q72.70 42.15 72.70 41.20L72.70 8.80Q72.70 7.85 73.13 7.42Q73.55 7 74.50 7L91.35 7Q97.60 7 100.63 9.50Q103.65 12 103.65 17.20L103.65 32.80Q103.65 38 100.63 40.50Q97.60 43 91.35 43M84.05 16.55L84.05 33.55L90 33.55Q91.20 33.55 91.78 32.95Q92.35 32.35 92.35 31.10L92.35 18.95Q92.35 17.70 91.78 17.13Q91.20 16.55 90 16.55L84.05 16.55Z"/></g></g></svg>